<?xml version="1.0" standalone="no"?>
<!DOCTYPE svg PUBLIC "-//W3C//DTD SVG 20010904//EN"
 "http://www.w3.org/TR/2001/REC-SVG-20010904/DTD/svg10.dtd">
<svg version="1.0" xmlns="http://www.w3.org/2000/svg"
 width="355.000000pt" height="433.000000pt" viewBox="0 0 355.000000 433.000000"
 preserveAspectRatio="xMidYMid meet">

<g transform="translate(0.000000,433.000000) scale(0.100000,-0.100000)"
fill="#000000" stroke="none">
<path d="M0 2165 l0 -2165 1775 0 1775 0 0 2165 0 2165 -1775 0 -1775 0 0
-2165z m1343 1171 c15 -5 27 -12 27 -17 0 -5 12 -16 26 -26 25 -16 27 -16 40
2 13 18 14 18 14 -3 0 -12 5 -22 11 -22 6 0 9 -14 8 -32 -2 -18 0 -57 5 -87 6
-41 5 -55 -5 -62 -12 -8 -12 -10 0 -18 11 -7 10 -11 -5 -19 -18 -10 -18 -11
-1 -18 14 -5 17 -13 12 -34 -3 -16 1 -54 10 -86 9 -33 25 -97 35 -144 9 -47
25 -109 35 -139 16 -47 17 -77 11 -255 -3 -111 -8 -212 -11 -224 -2 -13 -5
-45 -6 -70 -1 -26 -6 -53 -12 -59 -5 -7 -6 -13 -2 -13 4 0 2 -7 -5 -15 -6 -8
-8 -20 -4 -26 4 -8 3 -9 -4 -5 -12 7 -17 -11 -13 -43 2 -7 -2 -10 -7 -7 -5 3
-12 -3 -15 -14 -3 -11 -9 -19 -14 -18 -5 2 -17 -4 -26 -12 -46 -38 -57 -51
-51 -61 8 -14 -11 -53 -53 -106 -22 -28 -29 -43 -20 -46 6 -3 -6 -3 -28 -1
-27 3 -34 2 -21 -4 18 -8 18 -9 2 -15 -10 -4 -26 -2 -36 3 -26 14 -30 13 -30
-10 0 -18 -3 -19 -22 -9 -13 7 -26 17 -30 22 -4 7 -11 7 -21 -1 -20 -17 -58 1
-75 35 -16 35 -5 44 41 33 28 -6 41 -4 52 6 7 8 31 14 53 14 47 0 79 25 84 66
2 16 8 32 13 36 6 5 6 8 -1 8 -7 0 -11 14 -9 36 2 41 -14 94 -45 147 -12 21
-18 37 -14 37 5 0 -2 8 -16 17 -20 14 -49 19 -133 22 -10 1 -16 5 -13 9 3 5
-11 15 -30 22 -30 12 -54 36 -54 53 0 3 19 10 43 16 61 16 71 24 58 48 -13 25
-63 47 -94 41 -22 -4 -26 2 -46 63 -16 51 -21 89 -20 161 1 51 0 102 -2 113
-3 14 2 21 19 23 18 3 26 -5 41 -40 14 -32 34 -54 82 -88 76 -52 90 -66 82
-74 -4 -3 0 -6 8 -6 12 0 12 -2 0 -9 -7 -5 -14 -24 -15 -42 -1 -27 -6 -35 -25
-37 -19 -3 -22 -8 -15 -25 4 -12 8 -43 9 -69 1 -30 8 -55 20 -68 10 -11 15
-20 11 -20 -4 0 -1 -6 6 -14 7 -8 15 -12 17 -11 1 2 21 -10 44 -26 50 -36 57
-36 52 0 -4 38 4 71 19 71 7 0 10 16 7 48 -3 35 -6 42 -11 27 -7 -18 -8 -18
-15 7 -8 32 0 48 23 48 14 0 15 2 3 9 -12 8 -12 12 -2 25 8 9 10 17 5 17 -5 1
9 5 31 8 39 6 40 7 37 41 -2 19 -11 41 -19 47 -22 17 -21 78 2 103 16 18 16
20 2 20 -21 0 -22 23 -3 39 11 9 23 8 51 -3 30 -13 36 -13 32 -2 -4 10 0 12
14 9 14 -4 19 0 19 16 0 32 -27 91 -42 91 -7 0 -21 12 -31 26 -18 24 -18 26
-2 44 16 17 15 19 -3 29 -11 6 -23 7 -27 3 -5 -4 -5 -2 -1 5 4 8 -3 14 -21 18
-15 4 -40 13 -55 21 -14 8 -37 14 -50 14 -27 0 -68 33 -68 55 0 8 9 24 20 35
11 11 20 28 20 38 0 21 16 47 30 48 5 1 13 2 17 3 3 0 -1 9 -10 19 -8 9 -16
28 -16 42 -1 14 -1 36 -2 50 0 14 3 38 7 54 5 21 4 27 -5 22 -22 -14 -11 9 22
45 34 37 47 40 100 25z m-148 -260 c-11 -8 -23 -12 -28 -9 -13 8 3 23 26 23
20 0 20 0 2 -14z m605 -152 c0 -8 -5 -12 -10 -9 -6 4 -8 11 -5 16 9 14 15 11
15 -7z m-10 -165 c0 -6 -13 -22 -30 -36 -36 -30 -36 -30 -8 -146 20 -83 20
-98 9 -176 -13 -94 -48 -170 -88 -197 -26 -16 -59 -12 -47 7 4 8 9 7 16 -2 6
-9 8 1 4 33 -4 34 -1 49 9 58 8 7 15 26 15 42 0 25 4 29 22 26 52 -7 75 118
38 201 -24 52 -25 92 -5 131 9 17 12 30 8 30 -11 1 37 40 48 40 5 0 9 -5 9
-11z m-439 -59 l24 -20 -30 12 c-39 15 -54 28 -33 28 9 0 26 -9 39 -20z m428
-154 c-9 -8 -10 -7 -5 7 3 10 7 44 8 75 l2 57 3 -64 c3 -41 0 -68 -8 -75z
m-459 100 c0 -3 -4 -8 -10 -11 -5 -3 -10 -1 -10 4 0 6 5 11 10 11 6 0 10 -2
10 -4z m-191 -598 c21 -18 28 -38 13 -38 -5 0 -38 15 -73 32 l-64 33 40 5 c22
3 45 1 51 -5 7 -5 21 -18 33 -27z m34 -112 c62 -28 85 -70 60 -105 -19 -28
-37 -26 -57 4 -12 19 -25 25 -51 25 -21 0 -53 11 -77 26 -39 25 -41 27 -23 40
10 8 15 15 9 15 -12 2 45 16 69 18 10 0 42 -10 70 -23z m397 -136 c4 -73 12
-136 17 -139 16 -11 103 -148 123 -193 11 -24 28 -52 39 -62 11 -10 25 -34 31
-52 7 -19 17 -34 24 -34 7 0 36 -20 64 -44 28 -25 79 -61 112 -81 33 -20 60
-38 60 -40 0 -3 -9 -9 -21 -15 -16 -9 -25 -8 -40 6 -18 16 -19 16 -19 -9 0
-26 -26 -52 -60 -59 -28 -6 -45 -43 -52 -116 -3 -40 -11 -79 -18 -86 -7 -10
-8 -27 -1 -57 16 -72 17 -159 3 -159 -14 0 -37 51 -27 58 15 11 15 20 -5 168
-31 222 -32 228 -40 239 -3 6 -6 35 -6 67 1 31 -2 54 -6 52 -3 -2 -22 -34 -41
-71 -19 -38 -41 -81 -50 -98 -8 -16 -25 -61 -37 -99 -20 -64 -21 -71 -6 -81
20 -15 20 -25 1 -25 -28 0 -38 -50 -19 -92 9 -21 22 -42 29 -48 14 -12 7 -80
-9 -80 -26 0 -126 45 -186 84 -93 61 -90 60 -105 40 -13 -18 -14 -18 -21 0 -5
12 -3 21 4 24 7 2 9 8 6 13 -3 6 6 25 20 44 14 18 23 40 20 48 -3 8 2 17 12
21 12 5 15 14 10 40 -4 20 -2 37 3 41 6 3 13 28 17 55 4 28 10 50 14 50 5 0
11 14 15 30 4 17 24 65 45 108 94 191 120 258 119 301 0 22 -2 19 -13 -14 -16
-52 -41 -98 -60 -114 -13 -11 -17 -9 -26 15 -6 16 -12 45 -13 66 -1 20 -4 35
-8 32 -4 -2 -9 13 -11 34 -3 20 -1 39 4 40 11 5 10 52 -1 52 -21 0 -7 48 44
156 19 39 37 83 41 98 3 15 8 25 11 23 2 -3 8 -64 13 -137z m843 -726 c59 -30
107 -59 107 -63 0 -5 -12 -8 -26 -8 -36 0 -84 -51 -139 -148 -53 -93 -57 -93
-15 0 17 37 25 63 17 57 -8 -7 -18 -7 -27 -2 -9 5 -19 5 -27 -2 -11 -8 -12 -7
-7 8 7 19 7 19 -14 0 -12 -11 -22 -15 -22 -10 0 5 -8 0 -17 -11 l-16 -20 8 20
c16 46 16 49 -4 25 -23 -27 -27 -21 -10 13 l12 22 -23 -20 c-20 -17 -23 -18
-17 -2 4 9 2 17 -3 17 -6 0 -10 -4 -10 -8 0 -5 -7 -17 -15 -28 -13 -18 -14
-18 -9 6 l5 25 -11 -23 c-5 -13 -7 -29 -3 -34 3 -7 1 -8 -6 -4 -11 7 -22 -14
-52 -93 -5 -13 -12 -22 -14 -19 -3 3 6 35 20 72 61 161 143 286 189 286 11 0
69 -25 129 -56z m502 -354 c28 -21 72 -61 98 -88 51 -52 49 -66 -8 -56 -16 3
-32 -2 -42 -11 -14 -14 -17 -14 -32 0 -24 21 -44 19 -59 -6 -10 -16 -16 -18
-26 -9 -17 14 -91 3 -107 -16 -6 -8 -17 -14 -25 -14 -7 0 -25 -16 -40 -35 -24
-32 -53 -46 -55 -27 0 4 -2 17 -5 29 -2 13 3 27 14 35 10 7 21 21 25 32 7 18
6 18 -17 2 -14 -9 -27 -16 -30 -16 -11 0 -14 33 -4 58 15 37 18 85 7 98 -6 8
-4 14 7 18 24 9 -1 36 -33 36 -22 0 -24 2 -12 16 10 13 10 17 0 24 -20 11 -6
55 20 66 18 8 47 -1 148 -44 69 -29 149 -71 176 -92z m-1187 62 c-2 -11 2 -25
9 -33 10 -12 8 -15 -6 -16 -22 -2 -36 47 -18 59 17 11 19 10 15 -10z m-448
-29 c0 -17 -28 -53 -41 -53 -4 0 0 18 8 40 15 38 33 45 33 13z m405 -83 c-3
-5 -10 -10 -16 -10 -5 0 -9 5 -9 10 0 6 7 10 16 10 8 0 12 -4 9 -10z"/>
<path d="M1460 2801 c0 -5 5 -13 10 -16 6 -3 10 -2 10 4 0 5 -4 13 -10 16 -5
3 -10 2 -10 -4z"/>
<path d="M1443 1928 c-6 -7 -10 -21 -10 -31 0 -17 2 -17 21 2 14 15 17 24 10
31 -8 8 -14 7 -21 -2z"/>
<path d="M1185 1670 c-3 -5 -1 -10 4 -10 6 0 11 5 11 10 0 6 -2 10 -4 10 -3 0
-8 -4 -11 -10z"/>
<path d="M1785 1196 c-5 -76 -3 -132 8 -198 l14 -93 4 140 c5 204 4 234 -8
246 -8 8 -13 -18 -18 -95z"/>
<path d="M2255 929 c-4 -6 -5 -12 -2 -15 2 -3 7 2 10 11 7 17 1 20 -8 4z"/>
</g>
</svg>
